<svg xmlns="http://www.w3.org/2000/svg" version="1.1" xmlns:xlink="http://www.w3.org/1999/xlink" xmlns:svgjs="http://svgjs.dev/svgjs" width="128" height="128" viewBox="0 0 128 128"><g transform="matrix(0.8046875,0,0,0.8046875,12.760752631578946,21.295662184294848)"><svg viewBox="0 0 95 79" data-background-color="#ffffff" preserveAspectRatio="xMidYMid meet" height="106" width="128" xmlns="http://www.w3.org/2000/svg" xmlns:xlink="http://www.w3.org/1999/xlink"><g id="tight-bounds" transform="matrix(1,0,0,1,-0.24049999999999727,0.05177358421052247)"><svg viewBox="0 0 95.48100000000001 78.89645283157894" height="78.89645283157894" width="95.48100000000001"><g><svg viewBox="0 0 95.48100000000001 78.89645283157894" height="78.89645283157894" width="95.48100000000001"><g><svg viewBox="0 0 95.48100000000001 78.89645283157894" height="78.89645283157894" width="95.48100000000001"><g><svg viewBox="0 0 95.48100000000001 78.89645283157894" height="78.89645283157894" width="95.48100000000001"><g><svg viewBox="0 0 95.48100000000001 78.89645283157894" height="78.89645283157894" width="95.48100000000001"><g><svg viewBox="0 0 95.48100000000001 78.89645283157894" height="78.89645283157894" width="95.48100000000001"><g><svg xmlns="http://www.w3.org/2000/svg" xmlns:xlink="http://www.w3.org/1999/xlink" version="1.1" x="0" y="0" viewBox="2.5 10.751 95 78.499" style="enable-background:new 0 0 100 100;" xml:space="preserve" height="78.89645283157894" width="95.48100000000001" class="icon-icon-0" data-fill-palette-color="accent" id="icon-0"><path d="M90.492 34.832l2.469-3.221-12.579-6.567-5.056-4.894-1.937 1.244-8.907-4.65-7.592 9.229c-4.006-2.596-9.367-5.881-12.096-6.728-4.408-1.368-23.327-0.202-25.692-0.046L3.207 10.751 2.5 12.083l16.084 8.548 0.188 0.102 0.215-0.015c0.209-0.014 21.021-1.382 25.36-0.033 2.521 0.784 7.658 3.928 11.576 6.462l-6.794 8.258c-3.222-3.122-6.426-7.335-6.472-7.395l-1.201 0.909c0.189 0.251 3.391 4.461 6.715 7.65l1.851 1.641c0.792 0.638 1.563 1.17 2.263 1.508l0.289 0.14c0.73 0.351 1.615 0.774 2.543 1.258l1.327 0.721c2.438 1.383 4.813 3.106 5.194 4.901 0.164 0.771-0.073 1.521-0.729 2.291-0.977 1.148-2.598 1.818-4.688 1.935-1.266 0.077-2.669-0.075-4.104-0.381l-1.504-0.364c-2.98-0.864-5.958-2.413-8.172-4.313l-3.464-2.389c-1.864-0.786-3.642-0.762-5.382-0.711-2.436 0.063-4.741 0.123-7.542-1.934C20.008 36.433 15 31.385 14.95 31.334l-1.072 1.061c0.028 0.028 1.555 1.565 3.926 3.685L2.938 34.416 2.77 35.915l15.869 1.773 8.245 6.562 2.703 5.304-11.746 7.552 6.478 8.456-3.465 4.212 14.384 10.041 4.162 5.436 1.745-1.311 7.605 5.31L68.692 63.25 97.5 41.615 90.492 34.832zM75.135 22.064l0.539 0.521-0.745-0.389L75.135 22.064zM28.316 43.739c1.93 0.645 3.697 0.613 5.32 0.572 1.305-0.033 2.517-0.059 3.729 0.241l-6.503 4.181L28.316 43.739zM20.034 57.488l11.516-7.404 7.544-4.849c0.404 0.225 0.817 0.523 1.235 0.865l-5.876 7.144-0.984 1.195-8.165 9.927L20.034 57.488zM39.688 83.146l-0.37-0.481 0.524 0.365L39.688 83.146zM48.433 87.188L23.054 69.47l18.43-22.4c2.329 1.996 5.363 3.597 8.451 4.522l1.49 0.392c1.405 0.322 2.796 0.507 4.102 0.507 0.264 0 0.526-0.006 0.782-0.021 2.511-0.142 4.5-0.994 5.75-2.464 0.965-1.135 1.319-2.34 1.056-3.583-0.503-2.369-3.229-4.379-6-5.942l-1.328-0.718c-0.913-0.474-1.795-0.899-2.56-1.266l-0.287-0.138c-0.49-0.235-1.025-0.584-1.583-1.007l-1.233-1.085 14.745-17.62 25.805 13.471L48.433 87.188zM86.721 39.748c0.396-0.066 0.682-0.01 0.898 0.214 0.329 0.339 0.43 0.938-0.27 1.615-0.676 0.658-1.337 0.855-1.693 0.969l0.62 1.177c0.476-0.148 1.059-0.408 1.706-0.995l0.89 0.917 0.817-0.795-0.938-0.966c0.831-1.156 0.782-2.403-0.052-3.262-0.227-0.234-0.473-0.395-0.734-0.496l1.603-2.09 5.614 5.436L72.104 58.803 86.721 39.748zM84.741 34.686c0.484-1.45 0.036-2.712-1.091-3.326-1.203-0.655-2.335-0.102-3.575 0.989-0.89 0.788-1.504 1.046-2.105 0.719-0.614-0.334-0.713-1.119-0.257-1.955 0.434-0.8 1.087-1.377 1.687-1.73l-1.05-1.029c-0.559 0.308-1.243 1.004-1.719 1.814l-1.27-0.692-0.592 1.087 1.348 0.733c-0.541 1.556 0.007 2.854 1.12 3.46 1.177 0.643 2.234 0.386 3.581-0.78 1.044-0.89 1.616-1.191 2.151-0.898 0.446 0.243 0.741 0.825 0.239 1.742-0.483 0.89-1.099 1.303-1.427 1.531l1.011 1.009c0.439-0.305 0.955-0.754 1.431-1.563l1.204 0.656 0.585-1.075L84.741 34.686z" fill="#1e00ff" data-fill-palette-color="accent"></path></svg></g></svg></g></svg></g></svg></g></svg></g></svg></g><defs></defs></svg><rect width="95.48100000000001" height="78.89645283157894" fill="none" stroke="none" visibility="hidden"></rect></g></svg></g></svg>